<?xml version="1.0" encoding="utf-8"?>
<!-- Generator: Adobe Illustrator 19.1.0, SVG Export Plug-In . SVG Version: 6.00 Build 0)  -->
<svg version="1.1" id="Capa_1" xmlns="http://www.w3.org/2000/svg" xmlns:xlink="http://www.w3.org/1999/xlink" x="0px" y="0px"
	 viewBox="-209.8 -417.8 1953.1 384.7" style="enable-background:new -209.8 -417.8 1953.1 384.7;" xml:space="preserve">
<style type="text/css">
	.st0{fill:#E24420;}
	.st1{fill:#6D6D6D;}
</style>
<g>
	<g>
		<path class="st0" d="M234.1-358.6H130.5c-7.4-29.6-14.8-59.2-44.4-59.2H-32.3c-29.6,0-37,29.6-44.4,59.2h-103.6
			c-16.3,0-29.6,13.3-29.6,29.6v266.4c0,16.3,13.3,29.6,29.6,29.6h414.3c16.3,0,29.6-13.3,29.6-29.6V-329
			C263.7-345.3,250.4-358.6,234.1-358.6z M26.9-64.5c-72.5,0-131.3-58.8-131.3-131.3c0-72.5,58.8-131.3,131.3-131.3
			s131.3,58.8,131.3,131.3C158.3-123.3,99.5-64.5,26.9-64.5z M234.1-269.8h-59.2v-29.6h59.2V-269.8z"/>
	</g>
	<g>
		<path class="st0" d="M113.1-190.6c3.7,0,6.7-3,6.7-6.7c0-3.7-3-6.7-6.7-6.7H97.5v-47.6h15.5c3.7,0,6.7-3,6.7-6.7
			c0-3.7-3-6.7-6.7-6.7H97.5v-18.5c0-3.7-3-6.7-6.7-6.7s-6.7,3-6.7,6.7v18.5H36.6v-18.5c0-3.7-3-6.7-6.7-6.7s-6.7,3-6.7,6.7v18.5
			h-47.6v-18.5c0-3.7-3-6.7-6.7-6.7c-3.7,0-6.7,3-6.7,6.7v18.5h-21.5c-3.7,0-6.7,3-6.7,6.7c0,3.7,3,6.7,6.7,6.7h21.5v47.6h-21.5
			c-3.7,0-6.7,3-6.7,6.7c0,3.7,3,6.7,6.7,6.7h21.5v47.6h-21.5c-3.7,0-6.7,3-6.7,6.7c0,3.7,3,6.7,6.7,6.7h21.5v18.5
			c0,3.7,3,6.7,6.7,6.7c3.7,0,6.7-3,6.7-6.7v-18.5h47.6v18.5c0,3.7,3,6.7,6.7,6.7s6.7-3,6.7-6.7v-18.5h47.6v18.5
			c0,3.7,3,6.7,6.7,6.7s6.7-3,6.7-6.7v-18.5h15.5c3.7,0,6.7-3,6.7-6.7c0-3.7-3-6.7-6.7-6.7H97.5v-47.6H113.1z M84.2-251.6v47.6H36.6
			v-47.6H84.2z M-24.4-251.6h47.6v47.6h-47.6V-251.6z M-24.4-142.9v-47.6h47.6v47.6H-24.4z M84.2-142.9H36.6v-47.6h47.6V-142.9z"/>
	</g>
</g>
<g>
	<path class="st1" d="M335.1-281.2h46.4v176.8h-46.4V-281.2z"/>
	<path class="st1" d="M547-104.5l-83.4-83.7v83.7h-46.4v-176.8H436l83.7,83.4v-83.4h46.4v176.8H547z"/>
	<path class="st1" d="M666.7-227c0-7.3-6.1-13.4-13.4-13.4s-13.2,6.1-13.2,13.4s5.9,13.2,13.2,13.2c17.2,0,32.8,8.2,42.7,21
		c7.5,9.4,11.8,21.2,11.8,34.2c0,30.2-24.3,54.2-54.4,54.2s-54.4-23.8-54.4-54.9h41.2c0,7.5,5.9,13.4,13.2,13.4s13.4-5.9,13.4-13.2
		c0-7.3-6.1-13.4-13.4-13.4c-30.2,0-54.2-24-54.2-54.2c0-30.2,24-54.4,54.2-54.4s54.4,24,54.4,54.2H666.7z"/>
	<path class="st1" d="M737-281.5h139.3v46.2h-46.9v130.8h-46.4v-130.8h-46V-281.5z"/>
	<path class="st1" d="M874.2-104.5l82.5-176.8h21l83.2,176.8h-46.4l-10.8-23.1h-72.4l-10.6,23.1H874.2z M949.4-166.7h36.1
		l-17.9-38.9L949.4-166.7z"/>
	<path d="M1238.3-199.4v6.6c0,48.8-39.6,88.4-88.4,88.4c-48.8,0-88.2-39.6-88.2-88.4c0-48.8,39.4-88.4,88.2-88.4
		c24.3,0,46.2,9.9,62.2,25.7l-32.8,32.5c-7.5-7.1-17.4-11.8-29.5-11.8c-22.2,0-41.7,17.7-41.7,42s20,42,41.7,42
		c13.9,0,26.9-6.8,34.2-17.4h-34.2v-31.1H1238.3z"/>
	<path d="M1366.3-104.5l-27.3-46.9h-28.8v46.9h-46.4v-176.8h74.5c35.8,0,65.1,29.2,65.1,65.1c0,18.9-8.2,35.8-21,47.6l37.5,64.1
		H1366.3z M1310.2-191.4h28.8c14.1,0,25.5-11.1,25.5-25.2c0-14.1-11.3-25.5-25.5-25.5h-28.8V-191.4z"/>
	<path d="M1442.5-281.2h46.4v176.8h-46.4V-281.2z"/>
	<path d="M1524.5-281.2h65.5c48.8,0,88.4,39.6,88.4,88.4c0,48.8-39.6,88.4-88.4,88.4h-65.5V-281.2z M1570.7-150.2h19.6
		c23.1,0,42-18.9,42-42c0-22.9-18.9-41.7-42-41.7h-19.6V-150.2z"/>
</g>
</svg>
