<?xml version="1.0" encoding="utf-8"?>
<!-- Generator: Adobe Illustrator 19.1.0, SVG Export Plug-In . SVG Version: 6.00 Build 0)  -->
<svg version="1.1" id="Capa_1" xmlns="http://www.w3.org/2000/svg" xmlns:xlink="http://www.w3.org/1999/xlink" x="0px" y="0px"
	 viewBox="-2095.8 -575.3 473.5 384.7" style="enable-background:new -2095.8 -575.3 473.5 384.7;" xml:space="preserve">
<style type="text/css">
	.st0{fill:#FFFFFF;}
</style>
<path class="st0" d="M-1651.9-516.1h-103.6c-7.4-29.6-14.8-59.2-44.4-59.2h-118.4c-29.6,0-37,29.6-44.4,59.2h-103.6
	c-16.3,0-29.6,13.3-29.6,29.6v266.4c0,16.3,13.3,29.6,29.6,29.6h414.3c16.3,0,29.6-13.3,29.6-29.6v-266.4
	C-1622.3-502.8-1635.6-516.1-1651.9-516.1z M-1859-222c-72.5,0-131.3-58.8-131.3-131.3c0-72.5,58.8-131.3,131.3-131.3
	c72.5,0,131.3,58.8,131.3,131.3C-1727.7-280.8-1786.5-222-1859-222z M-1651.9-427.3h-59.2v-29.6h59.2V-427.3z"/>
<path class="st0" d="M-1772.9-348.1c3.7,0,6.7-3,6.7-6.7c0-3.7-3-6.7-6.7-6.7h-15.5v-47.6h15.5c3.7,0,6.7-3,6.7-6.7
	c0-3.7-3-6.7-6.7-6.7h-15.5v-18.5c0-3.7-3-6.7-6.7-6.7s-6.7,3-6.7,6.7v18.5h-47.6v-18.5c0-3.7-3-6.7-6.7-6.7s-6.7,3-6.7,6.7v18.5
	h-47.6v-18.5c0-3.7-3-6.7-6.7-6.7s-6.7,3-6.7,6.7v18.5h-21.5c-3.7,0-6.7,3-6.7,6.7c0,3.7,3,6.7,6.7,6.7h21.5v47.6h-21.5
	c-3.7,0-6.7,3-6.7,6.7c0,3.7,3,6.7,6.7,6.7h21.5v47.6h-21.5c-3.7,0-6.7,3-6.7,6.7c0,3.7,3,6.7,6.7,6.7h21.5v18.5
	c0,3.7,3,6.7,6.7,6.7s6.7-3,6.7-6.7v-18.5h47.6v18.5c0,3.7,3,6.7,6.7,6.7s6.7-3,6.7-6.7v-18.5h47.6v18.5c0,3.7,3,6.7,6.7,6.7
	s6.7-3,6.7-6.7v-18.5h15.5c3.7,0,6.7-3,6.7-6.7c0-3.7-3-6.7-6.7-6.7h-15.5v-47.6H-1772.9z M-1801.8-409.1v47.6h-47.6v-47.6H-1801.8z
	 M-1910.4-409.1h47.6v47.6h-47.6V-409.1z M-1910.4-300.5v-47.6h47.6v47.6H-1910.4z M-1801.8-300.5h-47.6v-47.6h47.6V-300.5z"/>
</svg>
