<?xml version="1.0" encoding="utf-8"?>
<!-- Generator: Adobe Illustrator 19.1.0, SVG Export Plug-In . SVG Version: 6.00 Build 0)  -->
<svg version="1.1" id="Capa_1" xmlns="http://www.w3.org/2000/svg" xmlns:xlink="http://www.w3.org/1999/xlink" x="0px" y="0px"
	 viewBox="-5268 -417.8 3530.5 3549.6" style="enable-background:new -5268 -417.8 3530.5 3549.6;" xml:space="preserve">
<style type="text/css">
	.st0{opacity:0.52;}
	.st1{fill:#EFEFEF;}
	.st2{fill:#ADADAD;}
</style>
<g>
	<g class="st0">
		<g>
			<path class="st1" d="M-2425.7,664.7h-538.5c-38.5-153.9-76.9-307.7-230.8-307.7h-615.4c-153.9,0-192.3,153.9-230.8,307.7h-538.5
				c-84.6,0-153.9,69.2-153.9,153.9v1384.7c0,84.6,69.2,153.9,153.9,153.9h2154c84.6,0,153.9-69.2,153.9-153.9V818.5
				C-2271.9,733.9-2341.1,664.7-2425.7,664.7z M-3502.8,2193.6c-377.1,0-682.7-305.7-682.7-682.7c0-377.1,305.7-682.7,682.7-682.7
				s682.7,305.7,682.7,682.7C-2820,1888-3125.7,2193.6-3502.8,2193.6z M-2425.7,1126.2h-307.7V972.4h307.7V1126.2z"/>
		</g>
		<g>
			<path class="st1" d="M-3055,1538.1c19.1,0,34.6-15.5,34.6-34.6s-15.5-34.6-34.6-34.6h-80.8v-247.7h80.8
				c19.1,0,34.6-15.5,34.6-34.6c0-19.1-15.5-34.6-34.6-34.6h-80.8v-96.2c0-19.1-15.5-34.6-34.6-34.6c-19.1,0-34.6,15.5-34.6,34.6
				v96.2h-247.7v-96.2c0-19.1-15.5-34.6-34.6-34.6c-19.1,0-34.6,15.5-34.6,34.6v96.2h-247.7v-96.2c0-19.1-15.5-34.6-34.6-34.6
				s-34.6,15.5-34.6,34.6v96.2h-111.5c-19.1,0-34.6,15.5-34.6,34.6c0,19.1,15.5,34.6,34.6,34.6h111.5v247.7h-111.5
				c-19.1,0-34.6,15.5-34.6,34.6s15.5,34.6,34.6,34.6h111.5v247.7h-111.5c-19.1,0-34.6,15.5-34.6,34.6c0,19.1,15.5,34.6,34.6,34.6
				h111.5v96.2c0,19.1,15.5,34.6,34.6,34.6s34.6-15.5,34.6-34.6V1855h247.7v96.2c0,19.1,15.5,34.6,34.6,34.6
				c19.1,0,34.6-15.5,34.6-34.6V1855h247.7v96.2c0,19.1,15.5,34.6,34.6,34.6c19.1,0,34.6-15.5,34.6-34.6V1855h80.8
				c19.1,0,34.6-15.5,34.6-34.6c0-19.1-15.5-34.6-34.6-34.6h-80.8v-247.7H-3055z M-3205,1221.1v247.7h-247.7v-247.7H-3205z
				 M-3769.7,1221.1h247.7v247.7h-247.7V1221.1z M-3769.7,1785.8v-247.7h247.7v247.7H-3769.7z M-3205,1785.8h-247.7v-247.7h247.7
				V1785.8z"/>
		</g>
	</g>
	<g>
		<path class="st2" d="M-4598.9,1022.6c0-9.1-7.6-16.7-16.7-16.7c-9.1,0-16.4,7.6-16.4,16.7c0,9.1,7.3,16.4,16.4,16.4
			c21.4,0,40.8,10.3,53.1,26.1c9.4,11.7,14.7,26.4,14.7,42.6c0,37.6-30.2,67.5-67.8,67.5s-67.8-29.7-67.8-68.4h51.4
			c0,9.4,7.3,16.7,16.4,16.7c9.1,0,16.7-7.3,16.7-16.4c0-9.1-7.6-16.7-16.7-16.7c-37.6,0-67.5-30-67.5-67.5s30-67.8,67.5-67.8
			s67.8,30,67.8,67.5H-4598.9z"/>
		<path class="st2" d="M-4506.7,955.1h136.8v47.9h-79v35.8h69.9v48.7h-69.9v40.5h79v47.3h-136.8V955.1z"/>
		<path class="st2" d="M-4343.1,1175.3l102.8-220.2h26.1l103.7,220.2h-57.8l-13.5-28.8h-90.1l-13.2,28.8H-4343.1z M-4249.5,1097.8
			h44.9l-22.3-48.5L-4249.5,1097.8z"/>
		<path class="st2" d="M-3953.5,1175.3l-34.1-58.4h-35.8v58.4h-57.8V955.1h92.8c44.6,0,81,36.4,81,81c0,23.5-10.3,44.6-26.1,59.3
			l46.7,79.9H-3953.5z M-4023.4,1067h35.8c17.6,0,31.7-13.8,31.7-31.4c0-17.6-14.1-31.7-31.7-31.7h-35.8V1067z"/>
		<path class="st2" d="M-3722.4,1027.9c-9.1-9.1-22-14.4-37-14.4c-30,0-51.7,21.7-51.7,51.7s21.7,51.7,51.7,51.7
			c15,0,27.9-5.3,37-14.7l41.1,40.5c-20,20-47.6,32.6-78.1,32.6c-60.8,0-110.1-49.3-110.1-110.1c0-60.8,49.3-110.1,110.1-110.1
			c30.2,0,57.6,12,77.5,32L-3722.4,1027.9z"/>
		<path class="st2" d="M-3579.4,955.1v78.4h69.9v-78.4h57.8v220.2h-57.8v-84h-69.9v84h-57.8V955.1H-3579.4z"/>
		<path class="st2" d="M-3270.2,1175.3l7.6-57.6h-24.1v-17.3h26.7l5.6-42.6h-25.3v-17.3h27.9l7.6-56.1h17l-7.3,56.1h30.5l7.6-56.1
			h17.3l-7.3,56.1h24.1v17.3h-26.7l-5.3,42.6h25.3v17.3h-27.9l-7.6,57.6h-17.6l7.6-57.6h-30.5l-7.6,57.6H-3270.2z M-3211.8,1100.4
			l5.6-42.6h-30.5l-5.6,42.6H-3211.8z"/>
		<path class="st2" d="M-3134,954.8h173.5v57.6h-58.4v163h-57.8v-163h-57.3V954.8z"/>
		<path class="st2" d="M-2951.3,1175.3l102.8-220.2h26.1l103.7,220.2h-57.8l-13.5-28.8h-90.1l-13.2,28.8H-2951.3z M-2857.6,1097.8
			h44.9l-22.3-48.5L-2857.6,1097.8z"/>
		<path class="st2" d="M-2485.9,1057v8.2c0,60.8-49.3,110.1-110.1,110.1c-60.8,0-109.8-49.3-109.8-110.1
			c0-60.8,49-110.1,109.8-110.1c30.2,0,57.6,12.3,77.5,32l-40.8,40.5c-9.4-8.8-21.7-14.7-36.7-14.7c-27.6,0-52,22-52,52.3
			s25,52.3,52,52.3c17.3,0,33.5-8.5,42.6-21.7h-42.6V1057H-2485.9z"/>
		<path class="st2" d="M-2373.1,1022.6c0-9.1-7.6-16.7-16.7-16.7c-9.1,0-16.4,7.6-16.4,16.7c0,9.1,7.3,16.4,16.4,16.4
			c21.4,0,40.8,10.3,53.1,26.1c9.4,11.7,14.7,26.4,14.7,42.6c0,37.6-30.2,67.5-67.8,67.5s-67.8-29.7-67.8-68.4h51.4
			c0,9.4,7.3,16.7,16.4,16.7c9.1,0,16.7-7.3,16.7-16.4c0-9.1-7.6-16.7-16.7-16.7c-37.6,0-67.5-30-67.5-67.5s30-67.8,67.5-67.8
			s67.8,30,67.8,67.5H-2373.1z"/>
		<path class="st2" d="M-5123.3,1421.6h173.5v57.6h-58.4v163h-57.8v-163h-57.3V1421.6z"/>
		<path class="st2" d="M-4816.2,1421.9c60.8,0,110.1,49.6,110.1,110.4s-49.3,109.8-110.1,109.8c-60.8,0-109.8-49-109.8-109.8
			S-4877,1421.9-4816.2,1421.9z M-4816.2,1479.5c-28.8,0-52.3,23.5-52.3,52.6c0,28.8,23.5,52.6,52.3,52.6
			c29.1,0,52.6-23.8,52.6-52.6C-4763.6,1502.9-4787.1,1479.5-4816.2,1479.5z"/>
		<path class="st2" d="M-4321.4,1421.6l-102.5,220.5h-26.4l-102.8-220.5h58.1l57.8,125.4l58.1-125.4H-4321.4z"/>
		<path class="st2" d="M-4296.4,1421.9h57.8v220.2h-57.8V1421.9z"/>
		<path class="st2" d="M-4194.3,1421.9h136.8v47.9h-79v35.8h69.9v48.7h-69.9v40.5h79v47.3h-136.8V1421.9z"/>
		<path class="st2" d="M-3855.7,1563.7l-36.4,78.4h-41.7l-101.6-220.2h63.4l62.3,134.8l42-91.6h24.4l42,91.6l62.5-134.8h63.4
			l-101.9,220.2h-41.7L-3855.7,1563.7z"/>
		<path class="st2" d="M-3518.3,1421.9h57.8v220.2h-57.8V1421.9z"/>
		<path class="st2" d="M-3300.1,1503.5l89.6-81.6h26.1v220.2h-58.1v-113.1l-57.6,52.6l-57.8-52.3v112.8h-58.1v-220.2h26.1
			L-3300.1,1503.5z"/>
		<path class="st2" d="M-3154.8,1642.1l102.8-220.2h26.1l103.7,220.2h-57.8l-13.5-28.8h-90.1l-13.2,28.8H-3154.8z M-3061.1,1564.6
			h44.9l-22.3-48.5L-3061.1,1564.6z"/>
		<path class="st2" d="M-2689.4,1523.8v8.2c0,60.8-49.3,110.1-110.1,110.1c-60.8,0-109.8-49.3-109.8-110.1
			c0-60.8,49-110.1,109.8-110.1c30.2,0,57.6,12.3,77.5,32l-40.8,40.5c-9.4-8.8-21.7-14.7-36.7-14.7c-27.6,0-52,22-52,52.3
			s25,52.3,52,52.3c17.3,0,33.5-8.5,42.6-21.7h-42.6v-38.8H-2689.4z"/>
		<path class="st2" d="M-2657.7,1421.9h136.8v47.9h-79v35.8h69.9v48.7h-69.9v40.5h79v47.3h-136.8V1421.9z"/>
		<path class="st2" d="M-2398.4,1489.4c0-9.1-7.6-16.7-16.7-16.7c-9.1,0-16.4,7.6-16.4,16.7c0,9.1,7.3,16.4,16.4,16.4
			c21.4,0,40.8,10.3,53.1,26.1c9.4,11.7,14.7,26.4,14.7,42.6c0,37.6-30.2,67.5-67.8,67.5s-67.8-29.7-67.8-68.4h51.4
			c0,9.4,7.3,16.7,16.4,16.7c9.1,0,16.7-7.3,16.7-16.4c0-9.1-7.6-16.7-16.7-16.7c-37.6,0-67.5-30-67.5-67.5s30-67.8,67.5-67.8
			s67.8,30,67.8,67.5H-2398.4z"/>
		<path class="st2" d="M-2174.4,1421.9h57.8v220.2h-57.8V1421.9z"/>
		<path class="st2" d="M-1910.4,1642.1l-103.9-104.2v104.2h-57.8v-220.2h23.5l104.2,103.9v-103.9h57.8v220.2H-1910.4z"/>
		<path class="st2" d="M-4262.1,1888.4h173.5v57.6h-58.4v163h-57.8v-163h-57.3V1888.4z"/>
		<path class="st2" d="M-3990.8,1888.7v78.4h69.9v-78.4h57.8V2109h-57.8v-84h-69.9v84h-57.8v-220.2H-3990.8z"/>
		<path class="st2" d="M-3818.7,1888.7h136.8v47.9h-79v35.8h69.9v48.7h-69.9v40.5h79v47.3h-136.8V1888.7z"/>
		<path class="st2" d="M-3291.6,1990.6v8.2c0,60.8-49.3,110.1-110.1,110.1c-60.8,0-109.8-49.3-109.8-110.1
			c0-60.8,49-110.1,109.8-110.1c30.2,0,57.6,12.3,77.5,32l-40.8,40.5c-9.4-8.8-21.7-14.7-36.7-14.7c-27.6,0-52,22-52,52.3
			s25,52.3,52,52.3c17.3,0,33.5-8.5,42.6-21.7h-42.6v-38.8H-3291.6z"/>
		<path class="st2" d="M-3132.2,2109l-34.1-58.4h-35.8v58.4h-57.8v-220.2h92.8c44.6,0,81,36.4,81,81c0,23.5-10.3,44.6-26.1,59.3
			l46.7,79.9H-3132.2z M-3202.1,2000.6h35.8c17.6,0,31.7-13.8,31.7-31.4c0-17.6-14.1-31.7-31.7-31.7h-35.8V2000.6z"/>
		<path class="st2" d="M-3037.3,1888.7h57.8V2109h-57.8V1888.7z"/>
		<path class="st2" d="M-2935.2,1888.7h81.6c60.8,0,110.1,49.3,110.1,110.1c0,60.8-49.3,110.1-110.1,110.1h-81.6V1888.7z
			 M-2877.6,2052h24.4c28.8,0,52.3-23.5,52.3-52.3c0-28.5-23.5-52-52.3-52h-24.4V2052z"/>
	</g>
</g>
</svg>
